<?xml version="1.0" encoding="iso-8859-1"?>
<!-- Uploaded to: SVG Repo, www.svgrepo.com, Generator: SVG Repo Mixer Tools -->
<svg height="800px" width="800px" version="1.1" id="Layer_1" xmlns="http://www.w3.org/2000/svg" xmlns:xlink="http://www.w3.org/1999/xlink" 
	 viewBox="0 0 392.533 392.533" xml:space="preserve">
<g>
	<path style="fill:#FFFFFF;" d="M247.402,29.414c-5.883,17.778-13.576,35.685-22.949,53.463
		c6.335,6.723,10.279,15.774,10.279,25.665c0,8.663-2.909,16.549-7.887,22.885c10.279,13.511,21.657,26.634,33.939,39.176
		c5.495-3.232,11.895-5.107,18.747-5.107c9.826,0,18.683,3.879,25.406,10.02c20.428-10.408,40.663-18.166,60.251-23.014
		C349.931,93.867,305.002,47.127,247.402,29.414z"/>
	<path style="fill:#FFFFFF;" d="M264.016,202.861c0,8.598,6.982,15.515,15.515,15.515c8.533,0,15.515-6.982,15.515-15.515
		s-6.982-15.515-15.515-15.515C270.998,187.345,264.016,194.263,264.016,202.861z"/>
	<path style="fill:#FFFFFF;" d="M209.002,144.032c-3.62,1.228-7.564,1.875-11.572,1.875c-4.267,0-8.339-0.776-12.283-2.133
		c-0.323,0.388-0.259,0.323-0.065,0.065c-27.927,36.331-61.673,67.103-94.642,88.63c23.014-1.034,46.933-0.065,70.917,2.909
		c6.659,0.84,13.317,1.939,19.911,3.038c6.4-11.442,18.618-19.265,32.582-19.265c6.853,0,13.188,1.875,18.747,5.107
		c3.879-3.232,7.758-6.4,11.636-9.503c-1.293-3.814-2.004-7.822-2.004-11.96c0-5.818,1.422-11.313,3.685-16.162
		C232.533,173.059,220.121,158.772,209.002,144.032z"/>
	<path style="fill:#FFFFFF;" d="M213.786,293.947c-5.818,0-11.184-1.293-16.097-3.685c-19.782,23.661-36.267,48.937-48.291,74.085
		c14.933,4.202,30.578,6.4,46.804,6.4c48.356,0,92.251-19.846,123.863-51.782c-20.622-16.226-46.416-30.319-75.701-41.115
		C237.705,287.547,226.457,293.947,213.786,293.947z"/>
	<path style="fill:#FFFFFF;" d="M363.636,245.333c4.59-15.58,7.111-32.065,7.111-49.067c0-7.564-0.517-14.998-1.487-22.238
		c-17.325,4.331-35.232,11.119-53.398,20.428c0.646,2.715,1.034,5.495,1.034,8.404c0,4.719-0.905,9.244-2.521,13.446
		C330.537,227.685,347.022,237.446,363.636,245.333z"/>
	<path style="fill:#FFFFFF;" d="M27.41,240.291c48.032-17.519,100.008-57.6,140.089-109.382c-0.129,0.129-0.259,0.323,0.065-0.065
		c0.323-0.388,0.129-0.259,0,0c-4.719-6.4-7.499-14.158-7.499-22.238c0-10.279,4.202-19.523,10.925-26.246
		c-8.857-18.554-15.515-36.784-19.717-54.562C76.8,47.644,21.786,115.653,21.786,196.267
		C21.786,211.459,23.79,226.263,27.41,240.291z"/>
	<path style="fill:#FFFFFF;" d="M356.137,265.956c-18.683-8.727-37.172-19.653-55.337-32.517
		c-6.012,4.267-13.382,6.723-21.333,6.723c-8.469,0-16.226-2.844-22.497-7.628c-3.232,2.521-6.4,5.172-9.568,7.887
		c2.392,4.848,3.814,10.343,3.814,16.226c0,0.129,0,0.323,0,0.517c32.129,11.83,60.638,27.281,83.394,45.446
		C343.143,291.297,350.448,279.014,356.137,265.956z"/>
	<path style="fill:#FFFFFF;" d="M128.711,357.172c13.059-27.927,31.16-55.79,52.945-81.648c-2.78-4.655-4.461-9.956-5.042-15.58
		c-6.012-1.034-12.024-2.004-18.166-2.78c-43.442-5.495-85.98-3.879-123.992,4.396C51.911,304.549,85.98,339.135,128.711,357.172z"
		/>
	<path style="fill:#FFFFFF;" d="M198.271,256.517c0,8.598,6.982,15.515,15.515,15.515s15.515-6.982,15.515-15.515
		c0-8.533-6.982-15.515-15.515-15.515C205.317,241.067,198.271,248.048,198.271,256.517z"/>
	<path style="fill:#FFFFFF;" d="M188.315,121.147c2.651,1.939,5.818,2.909,9.051,2.909c8.598,0,15.515-6.982,15.515-15.515
		s-6.982-15.515-15.515-15.515s-15.515,6.982-15.515,15.515C181.915,113.519,184.307,118.238,188.315,121.147z"/>
	<path style="fill:#FFFFFF;" d="M190.19,71.952c2.327-0.453,4.784-0.711,7.24-0.711c2.78,0,5.495,0.323,8.016,0.905
		c8.339-15.903,15.321-31.935,20.622-47.774c-9.762-1.681-19.653-2.651-29.802-2.651c-8.016,0-15.903,0.646-23.661,1.616
		C176.42,39.176,182.303,55.402,190.19,71.952z"/>
</g>
<path d="M167.499,130.844L167.499,130.844C167.499,130.909,167.499,130.909,167.499,130.844
	C167.499,130.909,167.499,130.909,167.499,130.844z"/>
<g>
	<path style="fill:#FFC10D;" d="M198.271,256.517c0,8.598,6.982,15.515,15.515,15.515s15.515-6.982,15.515-15.515
		c0-8.533-6.982-15.515-15.515-15.515C205.317,241.067,198.271,248.048,198.271,256.517z"/>
	<path style="fill:#FFC10D;" d="M264.016,202.861c0,8.598,6.982,15.515,15.515,15.515c8.533,0,15.515-6.982,15.515-15.515
		s-6.982-15.515-15.515-15.515C270.998,187.345,264.016,194.263,264.016,202.861z"/>
	<path style="fill:#FFC10D;" d="M188.315,121.147c2.651,1.939,5.818,2.909,9.051,2.909c8.598,0,15.515-6.982,15.515-15.515
		s-6.982-15.515-15.515-15.515s-15.515,6.982-15.515,15.515C181.915,113.519,184.307,118.238,188.315,121.147z"/>
</g>
<path style="fill:#194F82;" d="M196.267,0C87.984,0,0,87.984,0,196.267s87.984,196.267,196.267,196.267
	s196.267-87.984,196.267-196.267S304.549,0,196.267,0z M365.188,152.501c-19.653,4.784-39.822,12.541-60.251,23.014
	c-6.659-6.206-15.58-10.02-25.406-10.02c-6.853,0-13.188,1.875-18.747,5.107c-12.283-12.412-23.661-25.6-33.939-39.176
	c4.913-6.335,7.887-14.287,7.887-22.885c0-9.956-3.943-19.006-10.279-25.665c9.374-17.778,17.067-35.685,22.949-53.463
	C305.002,47.127,349.931,93.867,365.188,152.501z M295.111,202.861c0,8.598-6.982,15.515-15.515,15.515
	c-8.533,0-15.515-6.982-15.515-15.515s6.982-15.515,15.515-15.515C288.065,187.281,295.111,194.263,295.111,202.861z
	 M244.234,214.82c-3.943,3.103-7.822,6.271-11.636,9.503c-5.495-3.232-11.895-5.107-18.747-5.107
	c-13.964,0-26.246,7.822-32.582,19.265c-6.659-1.164-13.317-2.263-19.911-3.038c-24.048-3.038-47.838-3.943-70.917-2.909
	c32.97-21.527,66.78-52.234,94.642-88.63c-0.129,0.129-0.259,0.323,0.065-0.065c3.943,1.422,8.016,2.133,12.283,2.133
	c4.008,0,7.952-0.711,11.572-1.875c11.184,14.739,23.596,29.026,36.913,42.667c-2.392,4.848-3.685,10.343-3.685,16.162
	C242.23,206.998,242.941,211.006,244.234,214.82z M229.366,256.517c0,8.598-6.982,15.515-15.515,15.515s-15.515-6.982-15.515-15.515
	c0-8.533,6.982-15.515,15.515-15.515C222.384,241.067,229.366,248.048,229.366,256.517z M181.915,108.541
	c0-8.598,6.982-15.515,15.515-15.515s15.515,6.982,15.515,15.515s-6.982,15.515-15.515,15.515c-3.297,0-6.4-1.034-9.051-2.909
	C184.307,118.238,181.915,113.519,181.915,108.541z M196.267,21.786c10.214,0,20.17,0.905,29.802,2.651
	c-5.301,15.838-12.283,31.806-20.622,47.774c-2.651-0.517-5.236-0.905-8.016-0.905c-2.457,0-4.848,0.259-7.24,0.711
	c-7.887-16.549-13.77-32.776-17.519-48.549C180.364,22.432,188.251,21.786,196.267,21.786z M21.786,196.267
	c0-80.614,55.014-148.622,129.422-168.533c4.202,17.778,10.796,36.008,19.717,54.562C164.202,89.018,160,98.392,160,108.541
	c0,8.145,2.715,15.903,7.499,22.238c0.129-0.259,0.323-0.388,0,0c-0.323,0.388-0.129,0.259-0.065,0.065
	c-40.016,51.846-91.927,91.927-140.024,109.446C23.79,226.263,21.786,211.459,21.786,196.267z M34.521,261.495
	c38.012-8.339,80.614-9.891,123.992-4.396c6.077,0.776,12.154,1.681,18.166,2.78c0.453,5.624,2.263,10.99,5.042,15.58
	c-21.786,25.859-39.887,53.85-52.945,81.648C85.98,339.135,51.911,304.549,34.521,261.495z M196.267,370.747
	c-16.226,0-31.935-2.263-46.804-6.4c12.024-25.212,28.509-50.489,48.291-74.085c4.848,2.327,10.343,3.685,16.097,3.685
	c12.671,0,23.855-6.335,30.578-16.097c29.285,10.796,55.079,24.824,75.701,41.115C288.517,350.901,244.622,370.747,196.267,370.747z
	 M334.481,302.545c-22.691-18.166-51.2-33.616-83.394-45.446c0-0.129,0-0.323,0-0.517c0-5.818-1.422-11.313-3.814-16.226
	c3.168-2.715,6.335-5.301,9.568-7.887c6.271,4.784,14.093,7.628,22.497,7.628c7.952,0,15.192-2.457,21.333-6.723
	c18.101,12.929,36.655,23.79,55.337,32.517C350.448,279.014,343.143,291.297,334.481,302.545z M314.311,216.307
	c1.616-4.202,2.521-8.727,2.521-13.446c0-2.844-0.388-5.689-1.034-8.404c18.166-9.244,36.073-16.097,53.398-20.428
	c0.905,7.24,1.487,14.675,1.487,22.238c0,17.002-2.457,33.487-7.111,49.067C347.022,237.446,330.537,227.685,314.311,216.307z"/>
<g>
	<path style="fill:#56ACE0;" d="M138.667,337.584c11.766-21.269,26.246-42.343,42.99-62.19c-2.78-4.655-4.461-9.956-5.042-15.58
		c-6.012-1.034-12.024-2.004-18.166-2.78c-35.232-4.461-69.883-4.202-102.012,0.517C72.469,293.754,102.077,322.586,138.667,337.584
		z"/>
	<path style="fill:#56ACE0;" d="M43.572,196.267c0,12.154,1.487,23.984,4.202,35.297c41.956-20.299,85.204-56.178,119.725-100.655
		c-0.129,0.129-0.259,0.323,0.065-0.065c0.323-0.388,0.129-0.259,0,0c-4.719-6.4-7.499-14.158-7.499-22.238
		c0-10.279,4.202-19.523,10.925-26.246c-5.43-11.313-9.891-22.562-13.576-33.616C91.927,65.939,43.572,125.543,43.572,196.267z"/>
	<path style="fill:#56ACE0;" d="M302.028,306.166c-16.937-10.925-36.396-20.428-57.665-28.251
		c-6.723,9.632-17.907,16.097-30.578,16.097c-5.818,0-11.184-1.293-16.097-3.685c-14.61,17.455-27.345,35.749-37.947,54.238
		c11.636,2.844,23.855,4.396,36.461,4.396C237.317,348.962,274.618,332.606,302.028,306.166z"/>
	<path style="fill:#56ACE0;" d="M178.941,44.671c3.103,8.986,6.788,18.101,11.184,27.345c2.327-0.453,4.784-0.711,7.24-0.711
		c2.78,0,5.495,0.323,8.016,0.905c4.719-8.986,8.857-17.907,12.671-26.958c-7.176-1.034-14.481-1.616-21.85-1.616
		C190.384,43.572,184.63,43.96,178.941,44.671z"/>
	<path style="fill:#56ACE0;" d="M300.8,233.438c-6.012,4.267-13.382,6.723-21.333,6.723c-8.469,0-16.226-2.844-22.497-7.628
		c-3.232,2.521-6.4,5.172-9.568,7.887c2.392,4.848,3.814,10.343,3.814,16.226c0,0.129,0,0.323,0,0.517
		c24.242,8.857,46.545,19.911,65.681,32.582c8.016-10.279,14.739-21.657,19.911-33.745
		C324.719,249.277,312.63,241.842,300.8,233.438z"/>
	<path style="fill:#56ACE0;" d="M348.121,180.558c-10.602,3.814-21.333,8.339-32.194,13.834c0.646,2.715,1.034,5.495,1.034,8.404
		c0,4.719-0.905,9.244-2.521,13.446c9.762,6.853,19.653,13.123,29.608,18.683c3.232-12.347,5.042-25.341,5.042-38.723
		C348.962,190.966,348.638,185.729,348.121,180.558z"/>
	<path style="fill:#56ACE0;" d="M209.002,144.032c-3.62,1.228-7.564,1.875-11.572,1.875c-4.267,0-8.339-0.776-12.283-2.133
		c-0.323,0.388-0.259,0.323-0.065,0.065c-27.927,36.331-61.673,67.103-94.642,88.63c23.014-1.034,46.933-0.065,70.917,2.909
		c6.659,0.84,13.317,1.939,19.911,3.038c6.4-11.442,18.618-19.265,32.582-19.265c6.853,0,13.188,1.875,18.747,5.107
		c3.879-3.232,7.758-6.4,11.636-9.503c-1.293-3.814-2.004-7.822-2.004-11.96c0-5.818,1.422-11.313,3.685-16.162
		C232.533,173.059,220.121,158.772,209.002,144.032z"/>
	<path style="fill:#56ACE0;" d="M239.774,49.972c-4.461,10.99-9.503,22.044-15.321,32.905c6.335,6.723,10.279,15.774,10.279,25.665
		c0,8.663-2.909,16.549-7.887,22.885c10.279,13.511,21.657,26.634,33.939,39.176c5.495-3.232,11.895-5.107,18.747-5.107
		c9.826,0,18.683,3.879,25.406,10.02c13.188-6.788,26.376-12.283,39.305-16.679C331.119,106.731,290.974,65.228,239.774,49.972z"/>
</g>
</svg>